<svg xmlns="http://www.w3.org/2000/svg" xmlns:xlink="http://www.w3.org/1999/xlink" width="480" zoomAndPan="magnify" viewBox="0 0 360 367.91998" height="480" preserveAspectRatio="xMidYMid meet" version="1.2"><defs><clipPath id="3a57d2a504"><path d="M 22.675781 6.246094 L 354.933594 6.246094 L 354.933594 357 L 22.675781 357 Z M 22.675781 6.246094 "/></clipPath><clipPath id="810c25a854"><path d="M 326.347656 220.933594 C 318.242188 231.277344 307.921875 240.019531 296.414062 246.34375 C 293.859375 247.746094 291.003906 249.210938 287.996094 250.488281 C 306.796875 228.007812 318.144531 199.078125 318.144531 167.542969 C 318.144531 96.144531 260.058594 38.058594 188.660156 38.058594 C 117.261719 38.058594 59.175781 96.144531 59.175781 167.542969 C 59.175781 199.191406 70.597656 228.207031 89.519531 250.726562 C 87.191406 249.773438 84.960938 248.710938 82.921875 247.671875 C 72.777344 242.511719 63.660156 235.496094 55.894531 227.195312 C 36.417969 206.417969 30.535156 179.542969 35.03125 151.777344 C 38.835938 128.230469 45.335938 103.222656 57.871094 82.746094 C 73.113281 57.824219 96.796875 40.863281 122.882812 28.59375 C 141.496094 19.824219 161.355469 17.234375 181.695312 17.234375 C 200.871094 17.234375 219.503906 16.933594 238.152344 22.492188 C 263.851562 30.167969 289.375 46.3125 307.035156 66.476562 C 324.128906 85.988281 332.09375 109.445312 338.105469 134.191406 C 345.433594 164.324219 346.347656 195.410156 326.347656 220.945312 M 251.003906 289.023438 C 251.617188 291.117188 252.265625 293.257812 252.542969 295.425781 C 252.605469 295.914062 252.695312 296.4375 252.730469 296.964844 C 251.617188 297.617188 250.703125 298.605469 250.226562 299.796875 C 246.519531 301.8125 241.910156 302.738281 237.929688 303.578125 C 231.003906 305.054688 223.988281 306.230469 216.964844 307.132812 C 190.300781 310.566406 163.800781 309.023438 137.851562 302.210938 C 137.6875 301.484375 137.523438 300.757812 137.398438 300.058594 C 136.648438 295.699219 137.398438 291.230469 138.425781 286.882812 C 153.878906 293.40625 170.851562 297.027344 188.648438 297.027344 C 210.3125 297.027344 230.765625 291.667969 248.722656 282.210938 C 249.523438 284.464844 250.3125 286.734375 250.988281 289.023438 M 271.792969 323.089844 C 276.351562 325.054688 281.121094 326.28125 286.082031 326.683594 C 291.214844 327.109375 296.863281 325.683594 301.660156 328.113281 C 307.320312 330.980469 302.8125 337.804688 298.628906 339.859375 C 294.785156 341.75 289.851562 341.949219 285.632812 342.464844 C 276.101562 343.617188 270.226562 340.683594 265.304688 333.007812 C 264.753906 331.929688 264.101562 330.917969 263.300781 330.015625 C 259.117188 325.257812 251.679688 331.355469 254.695312 336.652344 C 255.121094 337.402344 255.574219 338.128906 256.023438 338.84375 C 256.449219 340.609375 256.199219 343.601562 254.847656 344.015625 C 252.03125 344.894531 251.054688 338.019531 250.652344 336.351562 C 249 329.476562 238.542969 332.394531 240.082031 339.269531 C 240.546875 341.324219 233.832031 345.65625 233.996094 341.636719 C 234.269531 335.0625 225.316406 334.75 223.238281 340.183594 C 222.472656 342.164062 220.179688 344.253906 217.902344 343.628906 C 215.886719 343.078125 215.824219 340.949219 215.699219 339.058594 C 215.257812 332.90625 206.945312 331.605469 204.941406 337.605469 C 204.351562 339.359375 203.035156 342.675781 201.382812 343.589844 C 201.09375 343.753906 200.894531 343.878906 200.757812 343.964844 C 200.644531 343.953125 200.507812 343.953125 200.304688 343.964844 C 199.667969 344.003906 199.242188 342.476562 199.367188 342.164062 C 200.519531 335.125 191.488281 332.734375 188.796875 339.246094 C 188.421875 340.148438 188.234375 341.085938 188.183594 342.023438 C 187.796875 343.140625 187.144531 344.105469 185.941406 344.230469 C 185.503906 344.28125 185.152344 344.21875 184.863281 344.09375 C 185.339844 342.453125 185.527344 340.710938 185.378906 338.945312 C 184.875 333.347656 178.441406 331.730469 175.171875 336.175781 C 173.644531 338.242188 173.03125 340.648438 173.117188 343.015625 C 171.199219 344.46875 167.957031 343.015625 168.121094 340.398438 C 168.421875 339.546875 168.695312 338.707031 168.945312 337.878906 C 170.699219 332.082031 161.433594 327.859375 158.925781 333.660156 C 158.738281 334.097656 158.578125 334.546875 158.425781 334.988281 C 158.414062 334.972656 158.390625 334.972656 158.375 334.960938 C 157.449219 338.003906 156.335938 342.261719 153.628906 344.28125 C 149.421875 347.421875 148.007812 342.152344 148.042969 338.832031 C 148.105469 332.945312 140.867188 331.96875 137.835938 336.0625 C 135.621094 339.058594 130.210938 345.570312 126.140625 345.59375 C 123.847656 345.605469 123.910156 344.832031 123.6875 342.4375 C 123.609375 341.550781 123.785156 340.648438 123.699219 339.769531 C 123.574219 338.519531 124.914062 337.71875 123.273438 338.945312 C 128.859375 334.722656 124.238281 326.445312 117.738281 329.488281 C 108.871094 333.632812 99.140625 335.75 89.371094 336 C 81.003906 336.214844 70.097656 335.601562 62.921875 330.714844 C 55.90625 325.933594 60.578125 317.367188 66.414062 314.035156 C 74.53125 309.402344 82.246094 311.390625 91.074219 313.058594 C 99.953125 314.722656 108.921875 316.839844 117.988281 317.039062 C 122.660156 317.140625 131.976562 316.976562 136.257812 313.132812 C 166.992188 320.984375 198.203125 321.5 229.523438 316.238281 C 236.011719 315.148438 246.984375 314.070312 254.746094 310.203125 C 259.292969 315.761719 265.066406 320.195312 271.753906 323.089844 M 292.417969 167.554688 C 292.417969 224.789062 245.855469 271.367188 188.609375 271.367188 C 131.363281 271.367188 84.800781 224.800781 84.800781 167.554688 C 84.800781 110.308594 131.363281 63.746094 188.609375 63.746094 C 245.855469 63.746094 292.417969 110.308594 292.417969 167.554688 M 344.53125 115.757812 C 341.1875 103.984375 337.089844 92.636719 331.117188 81.90625 C 315.652344 54.101562 290.851562 34.691406 262.726562 20.738281 C 241.359375 10.105469 218.816406 6.261719 195.132812 6.261719 C 173.96875 6.261719 153.089844 6.113281 132.675781 12.886719 C 104.085938 22.378906 76.121094 40.515625 57.445312 64.273438 C 40.363281 86 32.386719 111.699219 26.511719 138.300781 C 22.679688 155.660156 21.191406 173.417969 24.585938 190.988281 C 27.488281 205.992188 35.003906 219.667969 44.835938 231.238281 C 58.109375 246.871094 81.015625 264.816406 103.246094 264.753906 C 110.875 271.453125 119.289062 277.277344 128.332031 282.074219 C 126.878906 287.972656 125.652344 294.148438 126.390625 300.171875 C 126.628906 302.160156 127.042969 303.675781 127.304688 305.167969 C 120.53125 307.109375 112.839844 305.917969 106.089844 304.765625 C 97.535156 303.3125 89.09375 301.324219 80.464844 300.347656 C 67.867188 298.917969 52.75 305.417969 49.445312 318.679688 C 47.917969 324.78125 48.28125 331.753906 52.824219 336.488281 C 58.125 342 66.152344 344.417969 73.464844 345.71875 C 86.539062 348.050781 99.976562 347.046875 112.5625 343.113281 C 112.800781 347.671875 114.566406 352.070312 117.976562 354.460938 C 125.4375 359.695312 133.640625 355.539062 140.003906 349.777344 C 142.496094 353.835938 146.589844 356.628906 152.113281 356.328125 C 156.246094 356.101562 159.503906 354.136719 162.058594 351.332031 C 163.585938 352.757812 165.515625 353.859375 167.808594 354.472656 C 171.550781 355.476562 175.222656 354.6875 178.238281 352.820312 C 179.242188 353.597656 180.34375 354.234375 181.558594 354.675781 C 186.015625 356.265625 190.1875 355.136719 193.40625 352.558594 C 195.246094 354.085938 197.386719 355.148438 199.542969 355.414062 C 203.4375 355.902344 206.757812 354 209.398438 351.167969 C 211.140625 352.910156 213.429688 354.136719 216.398438 354.535156 C 220.683594 355.113281 224.527344 353.886719 227.609375 351.53125 C 230.5625 353.960938 234.609375 355.074219 238.628906 353.933594 C 241.035156 353.257812 243.3125 351.996094 245.242188 350.355469 C 248.773438 354.824219 253.820312 357.28125 260.234375 353.535156 C 262.285156 352.332031 263.878906 350.628906 265.003906 348.675781 C 269.964844 352.28125 275.914062 354.171875 283.039062 353.671875 C 294.433594 352.859375 307.683594 351.40625 313.183594 339.910156 C 319.507812 326.707031 310.328125 317.015625 296.953125 315.824219 C 290.015625 315.210938 283.738281 316.164062 277.039062 313.472656 C 271.304688 311.167969 266.480469 307.382812 262.773438 302.585938 C 266.09375 294.859375 261.195312 284.164062 258.355469 276.613281 C 263.902344 273.058594 269.164062 269.074219 274.097656 264.742188 C 293.144531 264.476562 312.480469 250.851562 325.269531 238.441406 C 346.949219 217.375 356.378906 189.636719 353.773438 159.679688 C 352.484375 144.773438 348.664062 130.085938 344.582031 115.746094 "/></clipPath></defs><g id="1cdf4bd9c9"><g clip-rule="nonzero" clip-path="url(#3a57d2a504)"><g clip-rule="nonzero" clip-path="url(#810c25a854)"><path style=" stroke:none;fill-rule:nonzero;fill:#ffffff;fill-opacity:1;" d="M 16.429688 0 L 685.941406 0 L 685.941406 372.226562 L 16.429688 372.226562 Z M 16.429688 0 "/></g></g></g></svg>