<svg xmlns="http://www.w3.org/2000/svg" xmlns:xlink="http://www.w3.org/1999/xlink" width="480" zoomAndPan="magnify" viewBox="0 0 360 367.91998" height="480" preserveAspectRatio="xMidYMid meet" version="1.2"><defs><clipPath id="132cbcccc1"><path d="M 5 4 L 330 4 L 330 359 L 5 359 Z M 5 4 "/></clipPath><clipPath id="d95a576631"><path d="M 224.828125 287.207031 C 226.15625 289.515625 227.824219 296.601562 225.863281 298.90625 C 224.625 300.359375 217.261719 300.09375 214.839844 300.167969 C 202.769531 300.5625 190.636719 299.875 178.570312 299.609375 C 164.652344 299.300781 150.738281 298.921875 136.832031 298.054688 C 133.355469 297.835938 129.875 297.59375 126.394531 297.3125 C 123.960938 297.125 116.074219 297.671875 114.367188 296.089844 C 114.300781 296.027344 114.378906 296.207031 113.894531 295.441406 C 113.488281 294.804688 113.5625 292.816406 113.523438 292.203125 C 113.449219 290.828125 113.015625 288.203125 113.550781 286.992188 C 113.640625 286.800781 113.703125 286.621094 113.765625 286.429688 L 224.449219 286.429688 C 224.550781 286.6875 224.664062 286.941406 224.816406 287.207031 M 245.320312 321.972656 C 255.632812 325.515625 268.363281 314.035156 276.824219 324.574219 C 279.792969 328.269531 279.910156 334.566406 276.289062 337.890625 C 272.210938 341.636719 264.960938 340.222656 259.992188 339.714844 C 249.515625 338.65625 242.710938 335.648438 235.242188 327.898438 C 231.34375 323.859375 224.472656 328.015625 225.925781 333.328125 C 226.625 335.878906 229.164062 345.296875 227.417969 346.53125 C 227.582031 346.417969 224.585938 346.035156 223.621094 345.449219 C 221.65625 344.261719 221.046875 342.273438 220.804688 340.160156 C 220.867188 338.859375 220.765625 337.609375 220.457031 336.476562 C 218.839844 330.511719 209.269531 331.570312 209.511719 337.953125 C 209.550781 338.847656 209.640625 339.714844 209.753906 340.59375 C 209.460938 342.503906 207.449219 344.453125 206.351562 346.097656 C 205.738281 345.574219 204.859375 344.914062 204.65625 344.695312 C 203.128906 343.152344 201.867188 341.421875 200.757812 339.558594 C 198.398438 335.597656 191.644531 336.105469 190.5625 340.886719 C 190.320312 341.980469 189.898438 343.332031 188.6875 343.765625 C 187.414062 344.222656 188.140625 344.070312 187.425781 342.542969 C 186.574219 340.695312 186.597656 338.042969 186.355469 336.054688 C 185.515625 329.035156 175.726562 328.753906 175.207031 336.054688 C 175.117188 337.226562 174.785156 342.3125 173.5625 342.773438 C 172.617188 343.128906 171.191406 337.890625 170.796875 336.679688 C 169.203125 331.902344 161.097656 330.867188 160.039062 336.679688 C 159.734375 338.375 158.703125 339.636719 157.441406 340.808594 C 156.90625 341.371094 156.292969 341.816406 155.628906 342.222656 C 154.28125 340.65625 152.292969 336.65625 152.6875 334.792969 C 153.972656 328.765625 145.804688 324.855469 142.492188 330.5 C 141.613281 331.992188 140.632812 336.960938 139.421875 337.789062 C 137.738281 338.949219 135.726562 335.367188 135.304688 333.378906 C 133.992188 327.3125 123.898438 328.550781 124.355469 334.859375 C 124.523438 337.152344 124.089844 341.445312 121.121094 340.59375 C 118.496094 339.839844 116.992188 334.960938 116.914062 332.679688 C 116.75 327.707031 111 325.503906 107.394531 328.742188 C 103.085938 332.601562 100.425781 339.039062 95.492188 342.121094 C 93.503906 343.371094 89.746094 344.9375 88.433594 341.929688 C 87.65625 340.144531 88.6875 337.417969 89.9375 335.355469 C 90.839844 334.375 91.65625 333.304688 92.371094 332.117188 C 95.582031 326.738281 88.011719 320.710938 83.613281 325.363281 C 82.773438 326.253906 82.007812 327.238281 81.320312 328.292969 C 76.425781 333.265625 66.371094 333.289062 60.179688 333.023438 C 56.039062 332.84375 51.792969 332.285156 47.933594 330.730469 C 41.75 328.230469 38.222656 322.164062 45.472656 317.933594 C 51.066406 314.671875 59.019531 315.4375 65.1875 315.753906 C 72.082031 316.125 78.949219 316.964844 85.859375 316.902344 C 96.882812 316.785156 107.191406 314.261719 115.972656 307.507812 C 117.015625 307.636719 118.074219 307.75 119.132812 307.839844 C 139.269531 309.703125 159.480469 310.324219 179.679688 310.757812 C 194.84375 311.089844 211.601562 313.246094 226.625 310.1875 C 227.710938 309.96875 228.691406 309.636719 229.609375 309.230469 C 233.546875 314.671875 239.5625 319.960938 245.335938 321.949219 M 64.855469 136.78125 C 56.039062 131.183594 44.210938 128.496094 36.425781 121.488281 C 32.882812 118.289062 33.378906 116.390625 36.960938 113.535156 C 44.824219 107.265625 54.726562 103.902344 63.746094 99.71875 C 80.390625 92.011719 96.917969 81.980469 110.210938 69.261719 C 124.613281 55.5 138.707031 41.390625 153.730469 28.304688 L 81.742188 153.003906 C 77.484375 146.554688 71.738281 141.136719 64.867188 136.78125 M 213.167969 56.542969 C 220.585938 63.71875 227.734375 71.238281 235.941406 77.507812 C 243.691406 83.433594 251.988281 88.644531 260.511719 93.386719 C 268.734375 97.960938 277.347656 101.429688 285.796875 105.519531 C 289.898438 107.507812 303.601562 113.292969 302.566406 117.96875 C 301.738281 121.703125 296.550781 124.023438 293.390625 125.667969 C 287.605469 128.675781 281.566406 131.148438 275.855469 134.320312 C 266.859375 139.316406 259.328125 145.851562 254.140625 154.113281 L 180.226562 26.046875 C 182.53125 28.023438 184.828125 30.023438 187.09375 32.050781 C 195.992188 39.988281 204.605469 48.25 213.167969 56.542969 M 282.953125 263.328125 L 52.289062 263.328125 L 167.621094 63.566406 Z M 260.792969 165.59375 C 265.597656 154.148438 275.15625 146.9375 286.753906 141.203125 C 295.519531 136.855469 307.816406 133.171875 312.316406 123.601562 C 320.613281 105.953125 292.652344 96.355469 281.082031 91.296875 C 262.667969 83.230469 245.375 72.179688 230.921875 58.226562 C 212.457031 40.410156 194.296875 21.308594 173.421875 6.257812 C 169.585938 3.492188 166.933594 3.503906 163.097656 6.257812 C 158.027344 9.902344 153.246094 14.042969 148.519531 18.097656 C 138.566406 26.609375 129.035156 35.605469 119.605469 44.679688 C 111.421875 52.554688 103.609375 61.171875 94.636719 68.140625 C 86.085938 74.78125 76.667969 80.4375 67.136719 85.5625 C 58.078125 90.417969 48.390625 93.910156 39.382812 98.839844 C 32.832031 102.421875 23.246094 107.632812 22.761719 116.132812 C 22.035156 129.09375 35.964844 134.652344 45.636719 139.238281 C 58.304688 145.242188 69.507812 152.1875 75.179688 164.359375 L 5.789062 284.546875 C 5.558594 284.941406 5.558594 285.425781 5.789062 285.820312 C 6.019531 286.214844 6.4375 286.457031 6.898438 286.457031 L 102.5 286.457031 C 101.851562 290.648438 102.207031 295.238281 103.265625 299.007812 C 103.570312 300.128906 104.019531 301.097656 104.554688 301.941406 C 90.050781 309.765625 70.949219 303.6875 55.363281 304.527344 C 42.707031 305.203125 25.234375 313.613281 30.957031 329.328125 C 35.289062 341.21875 50.671875 344.046875 61.757812 344.25 C 66.769531 344.339844 72.335938 343.945312 77.5 342.503906 C 77.96875 347.78125 80.851562 352.457031 87.121094 354.367188 C 97.058594 357.402344 103.226562 350.378906 108.988281 343.550781 C 111.613281 348.074219 115.730469 351.652344 120.96875 352.113281 C 125.554688 352.519531 129.289062 350.378906 131.839844 347.117188 C 134.207031 348.835938 136.949219 349.921875 139.804688 349.921875 C 142.480469 349.921875 144.351562 349.132812 145.78125 347.882812 C 147.371094 350.253906 149.359375 352.164062 151.628906 353.144531 C 155.925781 354.992188 160.855469 352.992188 164.652344 349.601562 C 167.074219 352.941406 170.425781 355.144531 175.460938 354.265625 C 177.269531 353.949219 178.773438 353.207031 180.046875 352.1875 C 181.003906 353.222656 182.175781 354.0625 183.640625 354.648438 C 188.0625 356.394531 192.714844 354.980469 196.183594 352.074219 C 200.273438 356.585938 205.6875 360.101562 211.195312 357.082031 C 212.800781 356.203125 214.328125 354.816406 215.679688 353.121094 C 218.878906 356.28125 223.273438 358.117188 228.753906 357.578125 C 236.058594 356.867188 238.414062 351.167969 238.683594 344.796875 C 244.507812 348.136719 250.890625 349.960938 258.574219 350.75 C 271.203125 352.050781 285.898438 351.066406 289.59375 336.296875 C 292.742188 323.695312 283.886719 311.855469 271.5625 309.332031 C 268.210938 308.644531 264.78125 308.566406 261.40625 309.140625 C 257.8125 309.738281 252.980469 312.53125 249.335938 311.613281 C 244.699219 310.441406 239.34375 304.296875 237.027344 300.128906 C 238.199219 295.847656 237.929688 290.867188 236.566406 286.46875 L 328.359375 286.46875 C 328.820312 286.46875 329.242188 286.226562 329.46875 285.832031 C 329.699219 285.4375 329.699219 284.953125 329.46875 284.558594 Z M 260.792969 165.59375 "/></clipPath></defs><g id="fd23dd6ed5"><g clip-rule="nonzero" clip-path="url(#132cbcccc1)"><g clip-rule="nonzero" clip-path="url(#d95a576631)"><path style=" stroke:none;fill-rule:nonzero;fill:#ffffff;fill-opacity:1;" d="M -344.667969 -14.210938 L 336.605469 -14.210938 L 336.605469 364.558594 L -344.667969 364.558594 Z M -344.667969 -14.210938 "/></g></g></g></svg>