<svg xmlns="http://www.w3.org/2000/svg" xmlns:xlink="http://www.w3.org/1999/xlink" width="480" zoomAndPan="magnify" viewBox="0 0 360 367.91998" height="480" preserveAspectRatio="xMidYMid meet" version="1.2"><defs><clipPath id="87cd9fa715"><path d="M 43 4.277344 L 317 4.277344 L 317 356 L 43 356 Z M 43 4.277344 "/></clipPath><clipPath id="3a30f784e3"><path d="M 238.746094 288.316406 C 234.824219 291.273438 225.664062 289.828125 221.117188 289.890625 C 207.589844 290.074219 194.050781 290.179688 180.527344 289.867188 C 167.027344 289.554688 153.53125 288.824219 140.109375 287.3125 C 137.84375 287.050781 130.53125 287.351562 129.074219 285.867188 C 128.628906 285.410156 128.265625 284.171875 128.082031 282.988281 C 127.679688 280.484375 127.875 277.945312 127.585938 275.429688 L 239.476562 275.429688 C 240.257812 279.363281 242.394531 285.566406 238.730469 288.316406 M 264.113281 316.042969 C 273.574219 320.226562 282.265625 317.425781 292.078125 318.664062 C 297.09375 319.300781 298.667969 320.761719 299.191406 325.917969 C 299.777344 331.785156 298.03125 334.664062 291.894531 335 C 281.992188 335.550781 269.429688 334.921875 263.214844 326.246094 C 260.636719 322.648438 253.820312 322.363281 252.792969 327.613281 C 252.246094 330.402344 252.246094 332.824219 252.621094 335.652344 C 252.832031 337.191406 253.285156 338.742188 253.300781 340.292969 C 253.3125 341.4375 252.191406 343.679688 253.925781 343.433594 C 250.460938 343.914062 247.527344 334.898438 246.042969 330.648438 C 246.027344 330.558594 246.015625 330.453125 246.003906 330.351562 C 245.988281 330.363281 245.964844 330.363281 245.949219 330.375 C 245.742188 329.789062 245.574219 329.320312 245.429688 328.996094 C 242.71875 322.726562 233.871094 327.46875 235.003906 333.386719 C 235.449219 335.707031 233.714844 341.453125 231.449219 342.765625 C 228.804688 344.304688 227.199219 340.839844 226.652344 338.023438 C 226.589844 337.035156 226.472656 336.058594 226.25 335.105469 C 224.855469 328.929688 214.5625 330.15625 215.058594 336.617188 C 215.121094 337.464844 215.238281 338.351562 215.421875 339.238281 C 215.527344 340.683594 215.226562 342.257812 214.078125 343.210938 C 212.75 344.304688 209.949219 344.410156 209.507812 342.492188 C 209.6875 341.621094 209.765625 340.707031 209.714844 339.757812 C 209.402344 333.660156 199.878906 331.628906 198.523438 338.246094 C 198.390625 338.84375 198.3125 339.445312 198.261719 340.042969 C 198 341.464844 195.316406 341.398438 194.953125 341.0625 C 194.078125 340.253906 193.308594 335.914062 192.632812 334.664062 C 190.5625 330.820312 184.933594 331.105469 182.792969 334.664062 C 181.714844 336.449219 180.4375 339.289062 178.519531 340.304688 C 177.597656 340.785156 176.554688 340.851562 175.96875 340.449219 C 176.4375 338.742188 176.683594 336.980469 176.671875 335.210938 C 176.617188 329.710938 168.773438 327.234375 166.050781 332.332031 C 164.851562 334.558594 164.292969 337.007812 164.320312 339.433594 C 163.808594 340.304688 163.054688 340.996094 161.945312 341.164062 C 159.808594 341.515625 158.195312 339.628906 157.867188 337.621094 C 158.023438 336.589844 158.117188 335.550781 158.089844 334.492188 C 157.933594 328.277344 148.277344 326.480469 146.898438 332.980469 C 146.636719 334.207031 146.519531 335.445312 146.53125 336.667969 C 145.136719 344.226562 135.273438 343.378906 132.605469 337.933594 C 133.113281 335.433594 133.058594 332.683594 132.265625 329.777344 C 130.78125 324.304688 122.804688 324.394531 121.269531 329.777344 C 120.550781 332.304688 120.460938 334.882812 120.851562 337.375 C 116.835938 344.121094 96.863281 339.613281 106.152344 326.636719 C 110.21875 320.957031 101.828125 316.015625 97.203125 319.730469 C 88.523438 326.6875 75.625 332.527344 64.507812 328.578125 C 58.839844 326.570312 55.804688 322.429688 55.011719 316.667969 C 54.292969 311.484375 57.382812 307.976562 62.632812 306.636719 C 69.082031 304.980469 76.769531 307.757812 83.207031 308.628906 C 89.566406 309.476562 95.613281 308.953125 101.929688 308.109375 C 111.535156 306.816406 119.925781 303.78125 125.777344 296.539062 C 127.40625 297.019531 129.191406 297.320312 131.078125 297.578125 C 149.164062 300.054688 167.378906 301.085938 185.621094 301.371094 C 194.925781 301.515625 204.230469 301.488281 213.53125 301.382812 C 221.492188 301.304688 230.015625 302.011719 237.859375 300.460938 C 239.460938 300.148438 240.882812 299.71875 242.160156 299.195312 C 248.203125 306.246094 255.671875 312.316406 264.152344 316.054688 M 241.351562 175.75 C 236.386719 175.621094 231.421875 175.542969 226.445312 175.488281 C 226.707031 153.183594 226.980469 130.863281 227.097656 108.554688 C 248.347656 108.621094 269.601562 108.308594 290.839844 107.019531 L 290.839844 175.019531 C 274.355469 176.742188 257.898438 176.167969 241.351562 175.75 M 226.316406 186.890625 C 230.953125 186.929688 235.578125 187.007812 240.21875 187.125 C 257.144531 187.542969 273.964844 188.179688 290.839844 186.421875 L 290.839844 249.578125 L 225.859375 249.578125 C 225.882812 228.679688 226.082031 207.792969 226.316406 186.890625 M 148.734375 188.039062 C 160.515625 187.738281 172.304688 187.425781 184.097656 187.191406 C 194.367188 186.980469 204.644531 186.863281 214.914062 186.851562 C 214.679688 207.765625 214.484375 228.664062 214.457031 249.566406 L 146.882812 249.566406 C 147.210938 229.03125 148.097656 208.535156 148.734375 188.023438 M 137.253906 107.707031 C 137.476562 118.027344 137.738281 128.347656 137.90625 138.65625 C 138.117188 151.421875 137.960938 164.167969 137.644531 176.910156 C 115.5625 177.429688 93.476562 177.808594 71.390625 177.417969 L 71.390625 110.09375 C 93.332031 108.359375 115.300781 107.773438 137.253906 107.707031 M 137.046875 96.308594 C 115.144531 96.371094 93.265625 96.957031 71.390625 98.691406 L 71.390625 30.128906 L 139.054688 30.128906 C 136.878906 52.109375 136.707031 74.222656 137.035156 96.320312 M 149.308594 138.65625 C 149.140625 128.359375 148.863281 118.042969 148.65625 107.722656 C 171.003906 107.8125 193.347656 108.292969 215.695312 108.492188 C 215.578125 130.808594 215.304688 153.128906 215.042969 175.449219 C 204.722656 175.464844 194.40625 175.59375 184.097656 175.789062 C 172.410156 176.023438 160.734375 176.324219 149.0625 176.625 C 149.375 163.972656 149.53125 151.320312 149.320312 138.640625 M 290.839844 95.617188 C 269.613281 96.90625 248.386719 97.21875 227.148438 97.15625 C 227.214844 74.808594 227.097656 52.460938 226.613281 30.117188 L 290.839844 30.117188 Z M 215.214844 30.128906 C 215.683594 52.449219 215.800781 74.769531 215.746094 97.101562 C 193.308594 96.90625 170.871094 96.410156 148.449219 96.332031 C 148.109375 74.234375 148.292969 52.125 150.46875 30.140625 Z M 71.375 188.820312 C 93.371094 189.199219 115.339844 188.84375 137.320312 188.324219 C 136.683594 208.742188 135.796875 229.148438 135.484375 249.578125 L 71.375 249.578125 Z M 315.375 4.277344 L 46.839844 4.277344 C 46.125 4.277344 45.539062 4.863281 45.539062 5.582031 L 45.539062 274.113281 C 45.539062 274.828125 46.125 275.417969 46.839844 275.417969 L 116.304688 275.417969 C 116.265625 275.9375 116.277344 276.472656 116.394531 277.058594 C 117.136719 280.808594 116.578125 284.628906 117.621094 288.355469 C 108.40625 301.332031 87.195312 297.460938 73.773438 295.585938 C 66.398438 294.558594 59.53125 294.492188 53.082031 298.570312 C 47.9375 301.828125 43.402344 306.777344 43.324219 313.136719 C 43.140625 326.714844 51.386719 337.660156 64.875 340.421875 C 74.554688 342.402344 84.289062 340.097656 93.007812 335.707031 C 94.375 343.261719 100.042969 349.960938 108.265625 351.808594 C 114.765625 353.269531 121.4375 351.640625 126.191406 347.953125 C 128.996094 350.886719 132.644531 353.023438 136.734375 353.765625 C 142.519531 354.820312 147.964844 352.734375 151.902344 348.996094 C 154.15625 351.027344 157.046875 352.398438 160.449219 352.644531 C 163.925781 352.90625 166.988281 351.886719 169.503906 350.0625 C 170.351562 350.703125 171.289062 351.261719 172.34375 351.691406 C 177.648438 353.894531 182.222656 352.058594 185.960938 348.761719 C 186.128906 349.007812 186.300781 349.269531 186.519531 349.503906 C 188.996094 352.28125 192.828125 353.113281 196.371094 352.800781 C 198.339844 352.632812 200.320312 352.058594 202.144531 351.171875 C 205.101562 354.402344 209.480469 356.265625 214.417969 355.433594 C 217.453125 354.925781 219.957031 353.53125 221.898438 351.589844 C 225.011719 354.535156 229.078125 356.058594 233.847656 354.535156 C 237.222656 353.464844 239.996094 351.042969 242.066406 347.992188 C 244.949219 352.136719 248.804688 355.144531 254.523438 354.675781 C 259.109375 354.300781 262.289062 350.78125 263.828125 346.652344 C 264.464844 344.945312 264.609375 343.289062 264.53125 341.660156 C 271.292969 345.035156 279.097656 345.765625 287.777344 346.273438 C 294.433594 346.664062 301.914062 345.90625 306.695312 340.667969 C 310.632812 336.355469 311.113281 329.867188 310.476562 324.332031 C 308.859375 310.246094 298.472656 306.855469 285.640625 307.011719 C 279.097656 307.089844 273.769531 308.109375 267.621094 305.109375 C 261.117188 301.945312 254.941406 296.953125 250.316406 291.285156 C 252.140625 286.792969 251.96875 281.175781 251.058594 275.390625 L 315.414062 275.390625 C 316.128906 275.390625 316.714844 274.804688 316.714844 274.085938 L 316.714844 5.582031 C 316.714844 4.863281 316.128906 4.277344 315.414062 4.277344 "/></clipPath></defs><g id="2c0f357992"><g clip-rule="nonzero" clip-path="url(#87cd9fa715)"><g clip-rule="nonzero" clip-path="url(#3a30f784e3)"><path style=" stroke:none;fill-rule:nonzero;fill:#ffffff;fill-opacity:1;" d="M 43.324219 4.277344 L 316.675781 4.277344 L 316.675781 355.578125 L 43.324219 355.578125 Z M 43.324219 4.277344 "/></g></g></g></svg>